<svg xmlns:dc="http://purl.org/dc/elements/1.1/" xmlns:cc="http://creativecommons.org/ns#" xmlns:rdf="http://www.w3.org/1999/02/22-rdf-syntax-ns#" xmlns:svg="http://www.w3.org/2000/svg" xmlns="http://www.w3.org/2000/svg" id="svg214343" viewBox="0 0 1024 768" height="768px" width="1024px" version="1.1">
  <metadata id="metadata214349">
    <rdf:rdf>
      <cc:work rdf:about="">
        <dc:format>image/svg+xml</dc:format>
        <dc:type rdf:resource="http://purl.org/dc/dcmitype/StillImage"></dc:type>
      </cc:work>
    </rdf:rdf>
  </metadata>
  <defs id="defs214347"></defs>
  <g id="logo-group">
    <g id="letter" style="font-style:normal;font-weight:normal;font-size:72px;font-family:'Press Start 2P';text-align:center;text-anchor:middle" aria-label="b">
      <path id="path214351" style="font-style:normal;font-weight:normal;font-size:72px;font-family:'Press Start 2P';text-align:center;text-anchor:middle" d="m 485,91 v -9 h -9 V 28 h 18 v 18 h 36 v 9 h 9 v 27 h -9 v 9 z m 9,-9 h 27 V 55 h -27 z" transform="translate(0 37.98798375882882) translate(386 134) scale(4) translate(-476 -28)"></path>
    </g>
    <g id="title" style="font-style:normal;font-weight:700;font-size:72px;line-height:1;font-family:'Brandmark1 Bold';font-variant-ligatures:none;text-align:center;text-anchor:middle">
      <path id="path214354" style="font-style:normal;font-weight:700;font-size:72px;line-height:1;font-family:'Brandmark1 Bold';font-variant-ligatures:none;text-align:center;text-anchor:middle" d="m 363.33069,102.504 c 0,-2.808 -0.576,-5.472 -1.656,-7.992 -1.008,-2.448 -2.52,-4.68 -4.392,-6.552 -1.872,-1.872 -4.032,-3.384 -6.48,-4.392 -2.592,-1.08 -5.256,-1.584 -7.992,-1.584 -2.808,0 -5.472,0.504 -7.992,1.584 -0.648,0.288 -1.224,0.504 -1.728,0.864 v -20.52 l -10.8,3.6 v 34.992 c 0,2.736 0.504,5.472 1.584,7.992 1.008,2.448 2.52,4.608 4.392,6.48 1.872,1.944 4.104,3.384 6.552,4.392 2.52,1.08 5.184,1.656 7.992,1.656 2.736,0 5.4,-0.576 7.992,-1.656 2.376,-1.008 4.608,-2.52 6.48,-4.392 1.872,-1.872 3.384,-4.032 4.392,-6.48 1.08,-2.592 1.656,-5.256 1.656,-7.992 z m -10.8,0 c 0,5.328 -4.392,9.72 -9.72,9.72 -5.4,0 -9.72,-4.392 -9.72,-9.72 0,-5.4 4.32,-9.72 9.72,-9.72 5.328,0 9.72,4.32 9.72,9.72 z" transform="translate(0 393.93441531572967) translate(252 65.25356844309911) scale(1.2386651715342831) translate(-322.29069 -63.912)"></path>
      <path id="path214356" style="font-style:normal;font-weight:700;font-size:72px;line-height:1;font-family:'Brandmark1 Bold';font-variant-ligatures:none;text-align:center;text-anchor:middle" d="m 377.46294,122.52 v 0 -17.712 c 0,-6.912 5.616,-12.6 12.6,-12.6 v -10.8 c -3.168,0 -6.264,0.648 -9.144,1.872 -2.736,1.152 -5.256,2.88 -7.416,5.04 -2.16,2.088 -3.816,4.608 -5.04,7.416 -1.224,2.88 -1.8,5.904 -1.8,9.072 v 17.712 z" transform="translate(0 393.93441531572967) translate(311.9170213437492 86.92525428426293) scale(1.2386651715342831) translate(-366.66294 -81.408)"></path>
      <path id="path214358" style="font-style:normal;font-weight:700;font-size:72px;line-height:1;font-family:'Brandmark1 Bold';font-variant-ligatures:none;text-align:center;text-anchor:middle" d="m 392.54806,122.52 h 10.872 V 80.976 l -10.872,3.6 z" transform="translate(0 393.93441531572967) translate(348.9346786348719 86.3901509301601) scale(1.2386651715342831) translate(-392.54806 -80.976)"></path>
      <path id="path214360" style="font-style:normal;font-weight:700;font-size:72px;line-height:1;font-family:'Brandmark1 Bold';font-variant-ligatures:none;text-align:center;text-anchor:middle" d="m 437.05419,81.984 0.072,2.304 c -2.88,-1.44 -6.048,-2.232 -9.288,-2.232 -2.736,0 -5.472,0.504 -7.992,1.584 -2.448,1.08 -4.608,2.52 -6.552,4.392 -1.872,1.872 -3.312,4.104 -4.392,6.552 -1.008,2.52 -1.584,5.256 -1.584,7.992 0,2.736 0.576,5.472 1.584,7.992 1.08,2.448 2.52,4.608 4.392,6.552 1.944,1.872 4.104,3.312 6.552,4.392 2.52,1.008 5.256,1.584 7.992,1.584 3.24,0 6.408,-0.792 9.288,-2.232 l -0.072,1.656 h 10.8 V 81.984 Z m -4.32,28.944 c -1.44,0.864 -3.168,1.368 -4.896,1.368 -5.328,0 -9.72,-4.392 -9.72,-9.72 0,-5.328 4.392,-9.72 9.72,-9.72 1.872,0 3.744,0.504 5.256,1.584 1.584,0.936 2.808,2.376 3.528,4.032 0.648,1.296 0.936,2.664 0.936,4.104 0,1.728 -0.432,3.384 -1.296,4.896 -0.864,1.44 -2.016,2.664 -3.528,3.456 z" transform="translate(0 393.93441531572967) translate(372.18458493104265 87.63872542306666) scale(1.2386651715342831) translate(-407.31819 -81.984)"></path>
      <path id="path214362" style="font-style:normal;font-weight:700;font-size:72px;line-height:1;font-family:'Brandmark1 Bold';font-variant-ligatures:none;text-align:center;text-anchor:middle" d="m 484.10731,88.392 c -3.456,-3.384 -7.992,-5.256 -12.816,-5.256 -2.592,0 -5.04,0.504 -7.272,1.512 v -2.664 h -10.8 v 17.64 c -0.072,0.576 -0.072,1.08 -0.072,1.656 h 0.072 v 21.24 h 10.8 V 100.2 c 0.504,-3.528 3.528,-6.264 7.272,-6.264 4.032,0 7.344,3.312 7.344,7.344 v 21.24 h 10.8 v -21.24 c 0,-4.896 -1.944,-9.432 -5.328,-12.888 z" transform="translate(0 393.93441531572967) translate(433.906180403245 87.63872542306666) scale(1.2386651715342831) translate(-453.14731 -81.984)"></path>
      <path id="path214364" style="font-style:normal;font-weight:700;font-size:72px;line-height:1;font-family:'Brandmark1 Bold';font-variant-ligatures:none;text-align:center;text-anchor:middle" d="m 496.79169,68.88 -2.376,17.352 h 4.752 l 3.888,-17.352 z" transform="translate(0 393.93441531572967) translate(489.9785460810241 71.40725701528143) scale(1.2386651715342831) translate(-494.41569 -68.88)"></path>
      <path id="path214366" style="font-style:normal;font-weight:700;font-size:72px;line-height:1;font-family:'Brandmark1 Bold';font-variant-ligatures:none;text-align:center;text-anchor:middle" d="m 523.67019,122.952 c 7.272,0 13.176,-5.904 13.176,-13.176 0,-7.272 -5.904,-13.176 -13.176,-13.176 h -3.024 c -1.08,0 -1.872,-0.864 -1.872,-1.872 0,-1.08 0.792,-1.944 1.872,-1.944 h 15.048 V 81.48 h -15.048 c -7.272,0 -13.176,5.976 -13.176,13.248 0,7.272 5.904,13.176 13.176,13.176 h 3.024 c 1.008,0 1.872,0.864 1.872,1.872 0,1.08 -0.864,1.872 -1.872,1.872 h -16.848 v 11.304 z" transform="translate(0 393.93441531572967) translate(510.3007062178013 87.01443817661337) scale(1.2386651715342831) translate(-506.82219 -81.48)"></path>
      <path id="path214368" style="font-style:normal;font-weight:700;font-size:72px;line-height:1;font-family:'Brandmark1 Bold';font-variant-ligatures:none;text-align:center;text-anchor:middle" d="m 600.56506,102.504 c 0,-2.808 -0.576,-5.472 -1.656,-7.992 -1.008,-2.448 -2.52,-4.68 -4.392,-6.552 -1.872,-1.872 -4.032,-3.384 -6.48,-4.392 -2.592,-1.08 -5.256,-1.584 -7.992,-1.584 -2.808,0 -5.472,0.504 -7.992,1.584 -0.648,0.288 -1.224,0.504 -1.728,0.864 v -20.52 l -10.8,3.6 v 34.992 c 0,2.736 0.504,5.472 1.584,7.992 1.008,2.448 2.52,4.608 4.392,6.48 1.872,1.944 4.104,3.384 6.552,4.392 2.52,1.08 5.184,1.656 7.992,1.656 2.736,0 5.4,-0.576 7.992,-1.656 2.376,-1.008 4.608,-2.52 6.48,-4.392 1.872,-1.872 3.384,-4.032 4.392,-6.48 1.08,-2.592 1.656,-5.256 1.656,-7.992 z m -10.8,0 c 0,5.328 -4.392,9.72 -9.72,9.72 -5.4,0 -9.72,-4.392 -9.72,-9.72 0,-5.4 4.32,-9.72 9.72,-9.72 5.328,0 9.72,4.32 9.72,9.72 z" transform="translate(0 393.93441531572967) translate(580.5365764128375 65.25356844309911) scale(1.2386651715342831) translate(-559.52506 -63.912)"></path>
      <path id="path214370" style="font-style:normal;font-weight:700;font-size:72px;line-height:1;font-family:'Brandmark1 Bold';font-variant-ligatures:none;text-align:center;text-anchor:middle" d="m 604.32931,122.52 h 10.872 V 64.488 l -10.872,3.6 z" transform="translate(0 393.93441531572967) translate(640.9887011106894 65.96703958190284) scale(1.2386651715342831) translate(-604.32931 -64.488)"></path>
      <path id="path214372" style="font-style:normal;font-weight:700;font-size:72px;line-height:1;font-family:'Brandmark1 Bold';font-variant-ligatures:none;text-align:center;text-anchor:middle" d="m 639.83544,123.024 c 2.736,0 5.472,-0.576 7.992,-1.584 2.448,-1.08 4.68,-2.52 6.552,-4.392 1.872,-1.944 3.312,-4.104 4.392,-6.552 1.08,-2.52 1.584,-5.256 1.584,-7.992 0,-2.808 -0.504,-5.472 -1.584,-7.992 -1.08,-2.448 -2.52,-4.68 -4.392,-6.552 -1.944,-1.872 -4.104,-3.312 -6.552,-4.392 -2.52,-1.08 -5.256,-1.584 -7.992,-1.584 -2.736,0 -5.472,0.504 -7.992,1.584 -2.448,1.08 -4.608,2.52 -6.552,4.392 -1.872,1.944 -3.312,4.104 -4.392,6.552 -1.008,2.52 -1.584,5.184 -1.584,7.992 0,2.736 0.576,5.472 1.584,7.992 1.08,2.448 2.52,4.608 4.392,6.552 1.944,1.872 4.104,3.312 6.552,4.392 2.52,1.008 5.256,1.584 7.992,1.584 z m 0,-30.24 c 5.328,0 9.72,4.392 9.72,9.72 0,5.328 -4.392,9.72 -9.72,9.72 -5.328,0 -9.72,-4.392 -9.72,-9.72 0,-5.328 4.392,-9.72 9.72,-9.72 z" transform="translate(0 393.93441531572967) translate(664.5061590839116 87.63872542306666) scale(1.2386651715342831) translate(-619.31544 -81.984)"></path>
      <path id="path214374" style="font-style:normal;font-weight:700;font-size:72px;line-height:1;font-family:'Brandmark1 Bold';font-variant-ligatures:none;text-align:center;text-anchor:middle" d="m 696.19344,87.888 c -3.816,-3.816 -8.928,-5.904 -14.256,-5.904 -5.4,0 -10.512,2.088 -14.328,5.904 -3.816,3.816 -5.904,8.856 -5.904,14.256 0,5.4 2.088,10.44 5.904,14.256 3.816,3.816 8.928,5.904 14.328,5.904 3.168,0 6.264,-0.72 9,-2.088 -1.08,3.96 -4.752,6.84 -9,6.84 -2.448,0 -4.752,-0.936 -6.48,-2.592 l -7.488,7.848 c 3.816,3.6 8.712,5.544 13.896,5.544 5.4,0 10.512,-2.088 14.328,-5.904 3.816,-3.816 5.904,-8.856 5.904,-14.256 v -15.552 c 0,-5.4 -2.088,-10.44 -5.904,-14.256 z m -14.256,23.616 c -5.184,0 -9.432,-4.176 -9.432,-9.36 0,-5.184 4.248,-9.432 9.432,-9.432 5.184,0 9.36,4.248 9.36,9.432 0,5.184 -4.248,9.36 -9.36,9.36 z" transform="translate(0 393.93441531572967) translate(721.9678363913871 87.63872542306666) scale(1.2386651715342831) translate(-661.70544 -81.984)"></path>
    </g>
    <g id="tagline" style="font-style:normal;font-weight:500;font-size:32px;line-height:1;font-family:Montserrat;font-variant-ligatures:none;text-align:center;text-anchor:middle">
      <path id="path214377" style="font-style:normal;font-weight:500;font-size:32px;line-height:1;font-family:Montserrat;font-variant-ligatures:none;text-align:center;text-anchor:middle" d="m 348.82175,229.648 q -0.96,0 -1.6,0.544 -0.608,0.544 -0.608,1.632 v 1.76 h 4.288 v 3.04 h -4.288 V 250 h -4.16 v -13.376 h -2.24 v -3.04 h 2.24 v -1.632 q 0,-1.888 0.832,-3.2 0.832,-1.344 2.208,-2.016 1.408,-0.672 3.04,-0.672 1.6,0 3.136,0.736 l -0.736,3.36 q -1.28,-0.512 -2.112,-0.512 z" transform="translate(0 509.3048708475991) translate(251.99999999999994 61.27497035516066) scale(1.0498751254297929) translate(-340.21375 -226.064)"></path>
      <path id="path214379" style="font-style:normal;font-weight:500;font-size:32px;line-height:1;font-family:Montserrat;font-variant-ligatures:none;text-align:center;text-anchor:middle" d="m 360.19675,232.752 q 4.096,0 6.144,2.336 2.08,2.336 2.08,6.56 0,0.832 -0.032,1.248 h -12.64 q 0.416,1.824 1.696,2.88 1.312,1.024 3.2,1.024 1.312,0 2.496,-0.48 1.216,-0.512 2.112,-1.44 l 2.24,2.336 q -1.28,1.408 -3.136,2.176 -1.824,0.768 -4.064,0.768 -2.624,0 -4.64,-1.088 -1.984,-1.088 -3.072,-3.04 -1.088,-1.984 -1.088,-4.544 0,-2.56 1.088,-4.544 1.12,-1.984 3.104,-3.072 1.984,-1.12 4.512,-1.12 z m 4.416,7.36 q -0.064,-1.888 -1.248,-3.008 -1.184,-1.12 -3.136,-1.12 -1.824,0 -3.072,1.12 -1.216,1.088 -1.504,3.008 z" transform="translate(0 509.3048708475991) translate(272.2405425431609 68.29653519403516) scale(1.0498751254297929) translate(-351.49275 -232.752)"></path>
      <path id="path214381" style="font-style:normal;font-weight:500;font-size:32px;line-height:1;font-family:Montserrat;font-variant-ligatures:none;text-align:center;text-anchor:middle" d="m 379.13425,232.752 q 4.096,0 6.144,2.336 2.08,2.336 2.08,6.56 0,0.832 -0.032,1.248 h -12.64 q 0.416,1.824 1.696,2.88 1.312,1.024 3.2,1.024 1.312,0 2.496,-0.48 1.216,-0.512 2.112,-1.44 l 2.24,2.336 q -1.28,1.408 -3.136,2.176 -1.824,0.768 -4.064,0.768 -2.624,0 -4.64,-1.088 -1.984,-1.088 -3.072,-3.04 -1.088,-1.984 -1.088,-4.544 0,-2.56 1.088,-4.544 1.12,-1.984 3.104,-3.072 1.984,-1.12 4.512,-1.12 z m 4.416,7.36 q -0.064,-1.888 -1.248,-3.008 -1.184,-1.12 -3.136,-1.12 -1.824,0 -3.072,1.12 -1.216,1.088 -1.504,3.008 z" transform="translate(0 509.3048708475991) translate(300.521553734426 68.29653519403516) scale(1.0498751254297929) translate(-370.43025 -232.752)"></path>
      <path id="path214383" style="font-style:normal;font-weight:500;font-size:32px;line-height:1;font-family:Montserrat;font-variant-ligatures:none;text-align:center;text-anchor:middle" d="m 391.09575,226.256 h 4.16 V 250 h -4.16 z" transform="translate(0 509.3048708475991) translate(330.6167491424337 61.47654637924322) scale(1.0498751254297929) translate(-391.09575 -226.256)"></path>
      <path id="path214385" style="font-style:normal;font-weight:500;font-size:32px;line-height:1;font-family:Montserrat;font-variant-ligatures:none;text-align:center;text-anchor:middle" d="m 415.57175,229.648 q -0.96,0 -1.6,0.544 -0.608,0.544 -0.608,1.632 v 1.76 h 4.288 v 3.04 h -4.288 V 250 h -4.16 v -13.376 h -2.24 v -3.04 h 2.24 v -1.632 q 0,-1.888 0.832,-3.2 0.832,-1.344 2.208,-2.016 1.408,-0.672 3.04,-0.672 1.6,0 3.136,0.736 l -0.736,3.36 q -1.28,-0.512 -2.112,-0.512 z" transform="translate(0 509.3048708475991) translate(355.675168636192 61.27497035516066) scale(1.0498751254297929) translate(-406.96375 -226.064)"></path>
      <path id="path214387" style="font-style:normal;font-weight:500;font-size:32px;line-height:1;font-family:Montserrat;font-variant-ligatures:none;text-align:center;text-anchor:middle" d="m 424.28325,236.176 q 0.864,-1.664 2.336,-2.528 1.504,-0.896 3.488,-0.928 v 4.032 q -2.656,-0.16 -4.256,1.248 -1.568,1.376 -1.568,3.744 V 250 h -4.16 v -17.12 h 4.16 z" transform="translate(0 509.3048708475991) translate(377.8900013527237 68.2629391900214) scale(1.0498751254297929) translate(-420.12325 -232.72)"></path>
      <path id="path214389" style="font-style:normal;font-weight:500;font-size:32px;line-height:1;font-family:Montserrat;font-variant-ligatures:none;text-align:center;text-anchor:middle" d="m 440.13425,232.752 q 4.096,0 6.144,2.336 2.08,2.336 2.08,6.56 0,0.832 -0.032,1.248 h -12.64 q 0.416,1.824 1.696,2.88 1.312,1.024 3.2,1.024 1.312,0 2.496,-0.48 1.216,-0.512 2.112,-1.44 l 2.24,2.336 q -1.28,1.408 -3.136,2.176 -1.824,0.768 -4.064,0.768 -2.624,0 -4.64,-1.088 -1.984,-1.088 -3.072,-3.04 -1.088,-1.984 -1.088,-4.544 0,-2.56 1.088,-4.544 1.12,-1.984 3.104,-3.072 1.984,-1.12 4.512,-1.12 z m 4.416,7.36 q -0.064,-1.888 -1.248,-3.008 -1.184,-1.12 -3.136,-1.12 -1.824,0 -3.072,1.12 -1.216,1.088 -1.504,3.008 z" transform="translate(0 509.3048708475991) translate(398.15994039939676 68.29653519403516) scale(1.0498751254297929) translate(-431.43025 -232.752)"></path>
      <path id="path214391" style="font-style:normal;font-weight:500;font-size:32px;line-height:1;font-family:Montserrat;font-variant-ligatures:none;text-align:center;text-anchor:middle" d="m 459.07175,232.752 q 4.096,0 6.144,2.336 2.08,2.336 2.08,6.56 0,0.832 -0.032,1.248 h -12.64 q 0.416,1.824 1.696,2.88 1.312,1.024 3.2,1.024 1.312,0 2.496,-0.48 1.216,-0.512 2.112,-1.44 l 2.24,2.336 q -1.28,1.408 -3.136,2.176 -1.824,0.768 -4.064,0.768 -2.624,0 -4.64,-1.088 -1.984,-1.088 -3.072,-3.04 -1.088,-1.984 -1.088,-4.544 0,-2.56 1.088,-4.544 1.12,-1.984 3.104,-3.072 1.984,-1.12 4.512,-1.12 z m 4.416,7.36 q -0.064,-1.888 -1.248,-3.008 -1.184,-1.12 -3.136,-1.12 -1.824,0 -3.072,1.12 -1.216,1.088 -1.504,3.008 z" transform="translate(0 509.3048708475991) translate(426.4409515906618 68.29653519403516) scale(1.0498751254297929) translate(-450.36775 -232.752)"></path>
      <path id="path214393" style="font-style:normal;font-weight:500;font-size:32px;line-height:1;font-family:Montserrat;font-variant-ligatures:none;text-align:center;text-anchor:middle" d="m 488.70175,248.944 q -2.048,1.248 -4.288,1.248 -2.208,0 -3.616,-1.28 -1.408,-1.312 -1.408,-3.84 v -8.448 h -2.4 l -0.032,-3.04 h 2.432 v -4.704 h 4.128 v 4.704 h 4.896 v 3.04 h -4.896 v 7.712 q 0,1.184 0.448,1.696 0.448,0.48 1.344,0.48 0.96,0 2.432,-0.704 z" transform="translate(0 509.3048708475991) translate(462.7561321792783 64.23141870837102) scale(1.0498751254297929) translate(-476.95775 -228.88)"></path>
      <path id="path214395" style="font-style:normal;font-weight:500;font-size:32px;line-height:1;font-family:Montserrat;font-variant-ligatures:none;text-align:center;text-anchor:middle" d="m 499.23625,232.752 q 2.656,0 4.672,1.088 2.048,1.088 3.168,3.072 1.152,1.952 1.152,4.512 0,2.592 -1.152,4.576 -1.12,1.984 -3.168,3.072 -2.016,1.088 -4.672,1.088 -2.688,0 -4.736,-1.088 -2.048,-1.088 -3.2,-3.072 -1.12,-1.984 -1.12,-4.576 0,-2.56 1.12,-4.512 1.152,-1.984 3.2,-3.072 2.048,-1.088 4.736,-1.088 z m 0,3.552 q -2.176,0 -3.52,1.44 -1.344,1.44 -1.344,3.744 0,2.304 1.344,3.744 1.344,1.44 3.52,1.44 2.112,0 3.456,-1.44 1.344,-1.44 1.344,-3.744 0,-2.304 -1.344,-3.744 -1.344,-1.44 -3.456,-1.44 z" transform="translate(0 509.3048708475991) translate(485.03710702871217 68.29653519403516) scale(1.0498751254297929) translate(-490.18025 -232.752)"></path>
      <path id="path214397" style="font-style:normal;font-weight:500;font-size:32px;line-height:1;font-family:Montserrat;font-variant-ligatures:none;text-align:center;text-anchor:middle" d="m 529.70175,248.944 q -2.048,1.248 -4.288,1.248 -2.208,0 -3.616,-1.28 -1.408,-1.312 -1.408,-3.84 v -8.448 h -2.4 l -0.032,-3.04 h 2.432 v -4.704 h 4.128 v 4.704 h 4.896 v 3.04 h -4.896 v 7.712 q 0,1.184 0.448,1.696 0.448,0.48 1.344,0.48 0.96,0 2.432,-0.704 z" transform="translate(0 509.3048708475991) translate(522.5990143287765 64.23141870837102) scale(1.0498751254297929) translate(-517.95775 -228.88)"></path>
      <path id="path214399" style="font-style:normal;font-weight:500;font-size:32px;line-height:1;font-family:Montserrat;font-variant-ligatures:none;text-align:center;text-anchor:middle" d="m 543.43175,232.72 q 2.944,0 4.64,1.792 1.696,1.76 1.696,4.8 V 250 h -4.192 v -9.472 q 0,-1.792 -1.024,-2.816 -1.024,-1.056 -2.784,-1.056 -2.08,0.032 -3.296,1.408 -1.216,1.376 -1.216,3.52 V 250 h -4.16 v -23.744 h 4.16 v 9.888 q 1.76,-3.36 6.176,-3.424 z" transform="translate(0 509.3048708475991) translate(546.8910249809709 61.47654637924322) scale(1.0498751254297929) translate(-533.09575 -226.256)"></path>
      <path id="path214401" style="font-style:normal;font-weight:500;font-size:32px;line-height:1;font-family:Montserrat;font-variant-ligatures:none;text-align:center;text-anchor:middle" d="m 561.57175,232.752 q 4.096,0 6.144,2.336 2.08,2.336 2.08,6.56 0,0.832 -0.032,1.248 h -12.64 q 0.416,1.824 1.696,2.88 1.312,1.024 3.2,1.024 1.312,0 2.496,-0.48 1.216,-0.512 2.112,-1.44 l 2.24,2.336 q -1.28,1.408 -3.136,2.176 -1.824,0.768 -4.064,0.768 -2.624,0 -4.64,-1.088 -1.984,-1.088 -3.072,-3.04 -1.088,-1.984 -1.088,-4.544 0,-2.56 1.088,-4.544 1.12,-1.984 3.104,-3.072 1.984,-1.12 4.512,-1.12 z m 4.416,7.36 q -0.064,-1.888 -1.248,-3.008 -1.184,-1.12 -3.136,-1.12 -1.824,0 -3.072,1.12 -1.216,1.088 -1.504,3.008 z" transform="translate(0 509.3048708475991) translate(576.0481569644071 68.29653519403516) scale(1.0498751254297929) translate(-552.86775 -232.752)"></path>
      <path id="path214403" style="font-style:normal;font-weight:500;font-size:32px;line-height:1;font-family:Montserrat;font-variant-ligatures:none;text-align:center;text-anchor:middle" d="m 588.32175,229.648 q -0.96,0 -1.6,0.544 -0.608,0.544 -0.608,1.632 v 1.76 h 4.288 v 3.04 h -4.288 V 250 h -4.16 v -13.376 h -2.24 v -3.04 h 2.24 v -1.632 q 0,-1.888 0.832,-3.2 0.832,-1.344 2.208,-2.016 1.408,-0.672 3.04,-0.672 1.6,0 3.136,0.736 l -0.736,3.36 q -1.28,-0.512 -2.112,-0.512 z" transform="translate(0 509.3048708475991) translate(612.6321055851337 61.27497035516066) scale(1.0498751254297929) translate(-579.71375 -226.064)"></path>
      <path id="path214405" style="font-style:normal;font-weight:500;font-size:32px;line-height:1;font-family:Montserrat;font-variant-ligatures:none;text-align:center;text-anchor:middle" d="M 609.05625,232.88 V 250 h -4.192 v -3.168 q -1.728,3.328 -5.952,3.328 -2.88,0 -4.544,-1.76 -1.664,-1.76 -1.664,-4.8 v -10.72 h 4.192 v 9.504 q 0,1.792 0.96,2.816 0.992,1.024 2.72,1.024 1.984,-0.032 3.136,-1.408 1.152,-1.376 1.152,-3.488 v -8.448 z" transform="translate(0 509.3048708475991) translate(634.6695094054677 68.4309192100902) scale(1.0498751254297929) translate(-592.70425 -232.88)"></path>
      <path id="path214407" style="font-style:normal;font-weight:500;font-size:32px;line-height:1;font-family:Montserrat;font-variant-ligatures:none;text-align:center;text-anchor:middle" d="m 624.26425,248.944 q -2.048,1.248 -4.288,1.248 -2.208,0 -3.616,-1.28 -1.408,-1.312 -1.408,-3.84 v -8.448 h -2.4 l -0.032,-3.04 h 2.432 v -4.704 h 4.128 v 4.704 h 4.896 v 3.04 h -4.896 v 7.712 q 0,1.184 0.448,1.696 0.448,0.48 1.344,0.48 0.96,0 2.432,-0.704 z" transform="translate(0 509.3048708475991) translate(663.8728358944229 64.23141870837102) scale(1.0498751254297929) translate(-612.52025 -228.88)"></path>
      <path id="path214409" style="font-style:normal;font-weight:500;font-size:32px;line-height:1;font-family:Montserrat;font-variant-ligatures:none;text-align:center;text-anchor:middle" d="M 643.30625,232.88 V 250 h -4.192 v -3.168 q -1.728,3.328 -5.952,3.328 -2.88,0 -4.544,-1.76 -1.664,-1.76 -1.664,-4.8 v -10.72 h 4.192 v 9.504 q 0,1.792 0.96,2.816 0.992,1.024 2.72,1.024 1.984,-0.032 3.136,-1.408 1.152,-1.376 1.152,-3.488 v -8.448 z" transform="translate(0 509.3048708475991) translate(687.4257344583148 68.4309192100902) scale(1.0498751254297929) translate(-626.95425 -232.88)"></path>
      <path id="path214411" style="font-style:normal;font-weight:500;font-size:32px;line-height:1;font-family:Montserrat;font-variant-ligatures:none;text-align:center;text-anchor:middle" d="m 652.65825,236.176 q 0.864,-1.664 2.336,-2.528 1.504,-0.896 3.488,-0.928 v 4.032 q -2.656,-0.16 -4.256,1.248 -1.568,1.376 -1.568,3.744 V 250 h -4.16 v -17.12 h 4.16 z" transform="translate(0 509.3048708475991) translate(718.4432451640125 68.2629391900214) scale(1.0498751254297929) translate(-648.49825 -232.72)"></path>
      <path id="path214413" style="font-style:normal;font-weight:500;font-size:32px;line-height:1;font-family:Montserrat;font-variant-ligatures:none;text-align:center;text-anchor:middle" d="m 668.50925,232.752 q 4.096,0 6.144,2.336 2.08,2.336 2.08,6.56 0,0.832 -0.032,1.248 h -12.64 q 0.416,1.824 1.696,2.88 1.312,1.024 3.2,1.024 1.312,0 2.496,-0.48 1.216,-0.512 2.112,-1.44 l 2.24,2.336 q -1.28,1.408 -3.136,2.176 -1.824,0.768 -4.064,0.768 -2.624,0 -4.64,-1.088 -1.984,-1.088 -3.072,-3.04 -1.088,-1.984 -1.088,-4.544 0,-2.56 1.088,-4.544 1.12,-1.984 3.104,-3.072 1.984,-1.12 4.512,-1.12 z m 4.416,7.36 q -0.064,-1.888 -1.248,-3.008 -1.184,-1.12 -3.136,-1.12 -1.824,0 -3.072,1.12 -1.216,1.088 -1.504,3.008 z" transform="translate(0 509.3048708475991) translate(738.7131842106855 68.29653519403516) scale(1.0498751254297929) translate(-659.80525 -232.752)"></path>
      <path id="path214415" style="font-style:normal;font-weight:500;font-size:32px;line-height:1;font-family:Montserrat;font-variant-ligatures:none;text-align:center;text-anchor:middle" d="m 681.30275,245.68 q 0.96,0 1.568,0.64 0.64,0.64 0.64,1.632 0,1.024 -0.64,1.696 -0.608,0.64 -1.568,0.64 -0.928,0 -1.568,-0.672 -0.608,-0.672 -0.608,-1.664 0,-0.992 0.608,-1.632 0.64,-0.64 1.568,-0.64 z" transform="translate(0 509.3048708475991) translate(767.3973474501156 81.86932081559152) scale(1.0498751254297929) translate(-679.12675 -245.68)"></path>
    </g>
  </g>
</svg>